<mxfile host="Electron" modified="2023-12-06T13:12:42.793Z" agent="Mozilla/5.0 (X11; Linux x86_64) AppleWebKit/537.36 (KHTML, like Gecko) draw.io/22.1.2 Chrome/114.0.5735.289 Electron/25.9.4 Safari/537.36" etag="iyt-UYHuoQqbR_wpKUzs" version="22.1.2" type="device">
  <diagram id="C5RBs43oDa-KdzZeNtuy" name="Page-1">
    <mxGraphModel dx="683" dy="397" grid="1" gridSize="10" guides="1" tooltips="1" connect="1" arrows="1" fold="1" page="1" pageScale="1" pageWidth="827" pageHeight="1169" math="0" shadow="0">
      <root>
        <mxCell id="WIyWlLk6GJQsqaUBKTNV-0" />
        <mxCell id="WIyWlLk6GJQsqaUBKTNV-1" parent="WIyWlLk6GJQsqaUBKTNV-0" />
        <mxCell id="35l5R2rgI5Nu7lGioXdj-8" style="rounded=0;orthogonalLoop=1;jettySize=auto;html=1;entryX=0;entryY=0.5;entryDx=0;entryDy=0;sketch=1;curveFitting=1;jiggle=2;" edge="1" parent="WIyWlLk6GJQsqaUBKTNV-1" source="35l5R2rgI5Nu7lGioXdj-0" target="35l5R2rgI5Nu7lGioXdj-4">
          <mxGeometry relative="1" as="geometry" />
        </mxCell>
        <mxCell id="35l5R2rgI5Nu7lGioXdj-9" value="Apporte" style="edgeLabel;html=1;align=center;verticalAlign=middle;resizable=0;points=[];" vertex="1" connectable="0" parent="35l5R2rgI5Nu7lGioXdj-8">
          <mxGeometry x="0.056" y="-3" relative="1" as="geometry">
            <mxPoint as="offset" />
          </mxGeometry>
        </mxCell>
        <mxCell id="35l5R2rgI5Nu7lGioXdj-0" value="Fournisseurs" style="rounded=0;whiteSpace=wrap;html=1;fillStyle=auto;sketch=1;curveFitting=1;jiggle=2;strokeColor=#FFFFFF;" vertex="1" parent="WIyWlLk6GJQsqaUBKTNV-1">
          <mxGeometry x="200" y="600" width="120" height="40" as="geometry" />
        </mxCell>
        <mxCell id="35l5R2rgI5Nu7lGioXdj-10" style="rounded=0;orthogonalLoop=1;jettySize=auto;html=1;entryX=0.5;entryY=0;entryDx=0;entryDy=0;edgeStyle=orthogonalEdgeStyle;sketch=1;curveFitting=1;jiggle=2;" edge="1" parent="WIyWlLk6GJQsqaUBKTNV-1" source="35l5R2rgI5Nu7lGioXdj-2" target="35l5R2rgI5Nu7lGioXdj-4">
          <mxGeometry relative="1" as="geometry" />
        </mxCell>
        <mxCell id="35l5R2rgI5Nu7lGioXdj-13" value="Négocie" style="edgeLabel;html=1;align=center;verticalAlign=middle;resizable=0;points=[];" vertex="1" connectable="0" parent="35l5R2rgI5Nu7lGioXdj-10">
          <mxGeometry x="-0.3613" relative="1" as="geometry">
            <mxPoint x="-13" as="offset" />
          </mxGeometry>
        </mxCell>
        <mxCell id="35l5R2rgI5Nu7lGioXdj-11" style="edgeStyle=orthogonalEdgeStyle;rounded=0;orthogonalLoop=1;jettySize=auto;html=1;entryX=1;entryY=0.5;entryDx=0;entryDy=0;exitX=1;exitY=0.5;exitDx=0;exitDy=0;sketch=1;curveFitting=1;jiggle=2;" edge="1" parent="WIyWlLk6GJQsqaUBKTNV-1" source="35l5R2rgI5Nu7lGioXdj-2" target="35l5R2rgI5Nu7lGioXdj-5">
          <mxGeometry relative="1" as="geometry">
            <mxPoint x="730" y="540" as="sourcePoint" />
            <mxPoint x="730" y="700" as="targetPoint" />
            <Array as="points">
              <mxPoint x="754" y="540" />
              <mxPoint x="754" y="700" />
            </Array>
          </mxGeometry>
        </mxCell>
        <mxCell id="35l5R2rgI5Nu7lGioXdj-12" value="Interroge" style="edgeLabel;html=1;align=center;verticalAlign=middle;resizable=0;points=[];" vertex="1" connectable="0" parent="35l5R2rgI5Nu7lGioXdj-11">
          <mxGeometry x="-0.0081" relative="1" as="geometry">
            <mxPoint as="offset" />
          </mxGeometry>
        </mxCell>
        <mxCell id="35l5R2rgI5Nu7lGioXdj-2" value="Service achat" style="rounded=0;whiteSpace=wrap;html=1;fillStyle=auto;sketch=1;curveFitting=1;jiggle=2;strokeColor=#FFFFFF;" vertex="1" parent="WIyWlLk6GJQsqaUBKTNV-1">
          <mxGeometry x="600" y="520" width="116" height="40" as="geometry" />
        </mxCell>
        <mxCell id="35l5R2rgI5Nu7lGioXdj-14" style="edgeStyle=orthogonalEdgeStyle;rounded=0;orthogonalLoop=1;jettySize=auto;html=1;entryX=1;entryY=0.5;entryDx=0;entryDy=0;sketch=1;curveFitting=1;jiggle=2;" edge="1" parent="WIyWlLk6GJQsqaUBKTNV-1">
          <mxGeometry relative="1" as="geometry">
            <mxPoint x="600" y="630.0000000000001" as="sourcePoint" />
            <mxPoint x="516" y="630.0000000000001" as="targetPoint" />
          </mxGeometry>
        </mxCell>
        <mxCell id="35l5R2rgI5Nu7lGioXdj-15" value="Vérifie" style="edgeLabel;html=1;align=center;verticalAlign=middle;resizable=0;points=[];" vertex="1" connectable="0" parent="35l5R2rgI5Nu7lGioXdj-14">
          <mxGeometry x="0.0011" y="3" relative="1" as="geometry">
            <mxPoint y="-3" as="offset" />
          </mxGeometry>
        </mxCell>
        <mxCell id="35l5R2rgI5Nu7lGioXdj-19" style="edgeStyle=orthogonalEdgeStyle;rounded=0;orthogonalLoop=1;jettySize=auto;html=1;entryX=0.5;entryY=0;entryDx=0;entryDy=0;sketch=1;curveFitting=1;jiggle=2;" edge="1" parent="WIyWlLk6GJQsqaUBKTNV-1" source="35l5R2rgI5Nu7lGioXdj-3" target="35l5R2rgI5Nu7lGioXdj-5">
          <mxGeometry relative="1" as="geometry" />
        </mxCell>
        <mxCell id="35l5R2rgI5Nu7lGioXdj-20" value="Interroge" style="edgeLabel;html=1;align=center;verticalAlign=middle;resizable=0;points=[];" vertex="1" connectable="0" parent="35l5R2rgI5Nu7lGioXdj-19">
          <mxGeometry x="-0.35" y="-2" relative="1" as="geometry">
            <mxPoint x="2" y="7" as="offset" />
          </mxGeometry>
        </mxCell>
        <mxCell id="35l5R2rgI5Nu7lGioXdj-3" value="Service approvisionnement" style="rounded=0;whiteSpace=wrap;html=1;fillStyle=auto;sketch=1;curveFitting=1;jiggle=2;strokeColor=#FFFFFF;" vertex="1" parent="WIyWlLk6GJQsqaUBKTNV-1">
          <mxGeometry x="600" y="600" width="116" height="40" as="geometry" />
        </mxCell>
        <mxCell id="35l5R2rgI5Nu7lGioXdj-4" value="Marchandises" style="rounded=0;whiteSpace=wrap;html=1;fillStyle=auto;sketch=1;curveFitting=1;jiggle=2;strokeColor=#FFFFFF;" vertex="1" parent="WIyWlLk6GJQsqaUBKTNV-1">
          <mxGeometry x="400" y="600" width="116" height="40" as="geometry" />
        </mxCell>
        <mxCell id="35l5R2rgI5Nu7lGioXdj-6" style="rounded=0;orthogonalLoop=1;jettySize=auto;html=1;entryX=0.5;entryY=1;entryDx=0;entryDy=0;exitX=0;exitY=0.5;exitDx=0;exitDy=0;edgeStyle=orthogonalEdgeStyle;sketch=1;curveFitting=1;jiggle=2;" edge="1" parent="WIyWlLk6GJQsqaUBKTNV-1" source="35l5R2rgI5Nu7lGioXdj-5" target="35l5R2rgI5Nu7lGioXdj-4">
          <mxGeometry relative="1" as="geometry" />
        </mxCell>
        <mxCell id="35l5R2rgI5Nu7lGioXdj-7" value="A besoin de" style="edgeLabel;html=1;align=center;verticalAlign=middle;resizable=0;points=[];" vertex="1" connectable="0" parent="35l5R2rgI5Nu7lGioXdj-6">
          <mxGeometry x="-0.0172" y="1" relative="1" as="geometry">
            <mxPoint as="offset" />
          </mxGeometry>
        </mxCell>
        <mxCell id="35l5R2rgI5Nu7lGioXdj-5" value="Production" style="rounded=0;whiteSpace=wrap;html=1;fillStyle=auto;sketch=1;curveFitting=1;jiggle=2;strokeColor=#FFFFFF;" vertex="1" parent="WIyWlLk6GJQsqaUBKTNV-1">
          <mxGeometry x="600" y="680" width="116" height="40" as="geometry" />
        </mxCell>
        <mxCell id="35l5R2rgI5Nu7lGioXdj-16" style="edgeStyle=orthogonalEdgeStyle;rounded=0;orthogonalLoop=1;jettySize=auto;html=1;entryX=1;entryY=0.5;entryDx=0;entryDy=0;sketch=1;curveFitting=1;jiggle=2;" edge="1" parent="WIyWlLk6GJQsqaUBKTNV-1">
          <mxGeometry relative="1" as="geometry">
            <mxPoint x="600" y="610.0000000000001" as="sourcePoint" />
            <mxPoint x="516" y="610.0000000000001" as="targetPoint" />
          </mxGeometry>
        </mxCell>
        <mxCell id="35l5R2rgI5Nu7lGioXdj-17" value="Commande" style="edgeLabel;html=1;align=center;verticalAlign=middle;resizable=0;points=[];" vertex="1" connectable="0" parent="35l5R2rgI5Nu7lGioXdj-16">
          <mxGeometry x="0.0011" y="3" relative="1" as="geometry">
            <mxPoint y="-3" as="offset" />
          </mxGeometry>
        </mxCell>
      </root>
    </mxGraphModel>
  </diagram>
</mxfile>
